<?xml version="1.0" standalone="no"?>
<!DOCTYPE svg PUBLIC "-//W3C//DTD SVG 20010904//EN"
 "http://www.w3.org/TR/2001/REC-SVG-20010904/DTD/svg10.dtd">
<svg version="1.0" xmlns="http://www.w3.org/2000/svg"
 width="936.000000pt" height="936.000000pt" viewBox="0 0 936.000000 936.000000"
 preserveAspectRatio="xMidYMid meet">
<metadata>
Created by potrace 1.14, written by Peter Selinger 2001-2017
</metadata>
<g transform="translate(0.000000,936.000000) scale(0.100000,-0.100000)"
fill="#000000" stroke="none">
<path d="M4418 9345 c-2 -2 -50 -6 -108 -10 -58 -3 -112 -8 -120 -10 -8 -2
-44 -7 -80 -10 -36 -4 -128 -18 -205 -31 -77 -13 -153 -27 -170 -29 -16 -3
-57 -12 -90 -20 -33 -9 -71 -17 -85 -20 -45 -6 -332 -93 -447 -134 -305 -109
-607 -254 -868 -414 -139 -85 -168 -104 -186 -122 -9 -8 -20 -15 -25 -15 -5 0
-38 -23 -73 -50 -36 -28 -67 -50 -70 -50 -3 0 -21 -14 -40 -30 -18 -17 -36
-30 -40 -30 -3 0 -22 -15 -42 -33 -20 -17 -54 -46 -75 -64 -189 -153 -374
-335 -569 -557 -11 -12 -96 -116 -108 -131 -4 -5 -15 -20 -25 -32 -10 -12 -27
-34 -38 -48 -10 -15 -24 -32 -30 -39 -15 -16 -97 -135 -109 -157 -5 -11 -13
-19 -17 -19 -5 0 -8 -7 -8 -15 0 -8 -4 -15 -8 -15 -5 0 -15 -12 -23 -27 -8
-15 -31 -53 -51 -84 -20 -31 -47 -74 -58 -95 -12 -22 -31 -55 -42 -74 -11 -19
-36 -64 -55 -100 -19 -36 -39 -70 -44 -76 -5 -6 -6 -14 -2 -17 3 -4 1 -7 -6
-7 -7 0 -9 -4 -6 -10 3 -5 1 -10 -5 -10 -6 0 -8 -4 -5 -10 3 -5 1 -10 -5 -10
-6 0 -8 -4 -5 -10 3 -5 1 -10 -4 -10 -6 0 -10 -3 -9 -7 1 -5 -11 -35 -27 -68
-16 -33 -30 -62 -31 -65 0 -3 -7 -18 -14 -35 -7 -16 -14 -32 -15 -35 0 -3 -9
-20 -18 -37 -10 -18 -18 -36 -18 -40 -1 -5 -6 -19 -11 -33 -68 -174 -165 -473
-183 -568 -2 -13 -7 -32 -10 -42 -3 -10 -8 -27 -10 -37 -2 -10 -9 -40 -15 -68
-15 -62 -17 -74 -24 -116 -3 -19 -8 -45 -11 -59 -7 -33 -12 -65 -20 -120 -4
-25 -9 -56 -11 -70 -2 -14 -6 -47 -9 -75 -3 -27 -7 -66 -10 -85 -27 -201 -27
-769 0 -975 3 -16 7 -51 9 -77 9 -79 36 -262 42 -278 3 -8 8 -29 10 -47 9 -67
67 -304 110 -446 183 -609 485 -1172 886 -1652 9 -11 26 -31 38 -45 86 -104
276 -299 396 -410 108 -99 154 -138 284 -239 36 -28 72 -57 81 -66 9 -8 20
-15 26 -15 5 0 20 -11 33 -25 13 -14 29 -25 37 -25 7 0 13 -4 13 -8 0 -4 15
-16 33 -27 17 -10 34 -21 37 -24 10 -12 90 -61 99 -61 5 0 11 -3 13 -7 4 -11
85 -63 96 -63 5 0 19 -9 32 -20 13 -11 29 -20 37 -20 7 0 13 -4 13 -8 0 -5 16
-14 35 -22 19 -8 35 -18 35 -22 0 -5 4 -7 9 -4 5 4 11 2 13 -2 2 -7 292 -155
308 -158 5 -1 66 -27 105 -44 79 -35 120 -52 136 -55 11 -2 25 -7 32 -12 12
-8 127 -50 157 -58 8 -2 16 -4 18 -5 1 -2 5 -3 10 -4 4 -1 46 -14 93 -29 47
-15 98 -30 114 -33 16 -3 32 -7 37 -10 4 -3 18 -8 30 -10 54 -13 94 -23 113
-27 40 -10 111 -26 140 -31 17 -3 41 -8 55 -11 14 -3 40 -8 59 -11 18 -3 43
-8 55 -10 11 -2 39 -6 61 -9 22 -3 51 -7 64 -10 13 -2 49 -7 80 -10 31 -4 72
-8 91 -11 224 -26 787 -26 965 0 17 3 53 8 80 11 28 3 68 8 90 11 59 7 328 55
335 59 4 2 22 7 41 10 71 12 310 79 453 126 614 204 1190 542 1668 979 133
121 312 305 398 409 19 23 46 55 60 71 31 35 47 55 85 105 16 22 40 51 52 65
13 14 23 29 23 33 0 5 6 15 13 22 26 30 37 44 37 50 0 3 5 11 10 18 47 56 60
74 60 85 0 6 5 12 10 12 6 0 10 7 10 15 0 8 5 15 10 15 6 0 10 7 10 15 0 8 4
15 9 15 5 0 11 8 15 18 6 20 25 50 44 70 6 7 12 20 12 28 0 8 5 14 10 14 6 0
10 6 10 14 0 8 6 21 13 28 6 7 21 31 32 53 11 22 23 42 26 45 3 3 21 37 40 75
18 39 36 72 40 75 8 7 22 44 21 53 -1 4 2 7 8 7 5 0 10 6 10 14 0 8 13 39 30
70 16 31 29 59 29 61 0 3 12 30 26 60 14 31 25 58 25 61 0 3 6 20 14 37 8 18
24 59 35 92 12 33 26 69 31 80 7 16 30 84 35 105 1 3 5 13 9 22 4 9 9 22 10
30 1 7 9 33 16 58 7 25 15 50 16 55 3 9 16 59 30 110 7 27 9 34 22 80 6 22 14
56 17 75 3 19 10 51 15 70 5 19 11 51 14 70 3 19 8 46 11 60 3 14 7 39 9 55 3
17 7 45 10 63 11 63 15 88 21 142 3 30 8 73 10 95 15 134 20 261 19 500 0 289
-5 372 -40 640 -10 79 -13 95 -18 112 -3 10 -7 36 -11 57 -3 21 -8 51 -12 65
-3 14 -7 35 -8 46 -1 11 -5 31 -8 45 -4 14 -20 81 -37 150 -35 142 -95 340
-147 480 -42 114 -142 351 -154 364 -5 6 -9 18 -9 27 0 10 -3 19 -7 21 -5 2
-28 44 -52 93 -138 281 -421 704 -616 921 -11 12 -49 55 -85 95 -79 90 -219
230 -324 324 -101 92 -116 104 -160 140 -21 17 -49 40 -64 53 -39 33 -42 35
-123 94 -41 29 -76 55 -79 58 -3 3 -25 19 -50 35 -25 16 -47 32 -50 35 -14 14
-121 80 -130 80 -5 0 -10 5 -10 10 0 6 -4 10 -10 10 -5 0 -33 15 -62 33 -119
76 -453 249 -462 239 -3 -3 -6 0 -6 6 0 7 -3 11 -7 10 -5 -1 -22 5 -39 15 -17
9 -34 13 -38 10 -3 -4 -6 -1 -6 5 0 7 -3 11 -7 10 -5 -1 -26 6 -48 16 -100 43
-371 139 -460 162 -5 2 -41 12 -80 23 -38 12 -79 23 -90 26 -11 2 -31 7 -45
10 -36 9 -138 32 -180 40 -14 3 -36 7 -50 10 -14 3 -36 7 -50 10 -34 5 -99 16
-119 20 -9 1 -41 6 -71 10 -30 3 -66 8 -80 10 -60 8 -130 16 -195 21 -77 7
-631 14 -637 9z"/>
</g>
</svg>
